<svg id="Capa_1" enable-background="new 0 0 512 512" height="180" viewBox="0 0 512 512" width="200" xmlns="http://www.w3.org/2000/svg"><g><g><path d="m51.2 0c-18.851 0-34.133 15.282-34.133 34.132l-.001 311.528h477.868l-.002-311.528c.001-18.85-15.281-34.132-34.132-34.132z" fill="#cfd7e6"/><path d="m51.199 345.661v-294.46c0-9.426 7.641-17.067 17.067-17.067h375.47c9.426 0 17.067 7.641 17.067 17.067v294.46z" fill="#8db5ff"/><path d="m494.933 34.132c0-18.85-15.282-34.132-34.133-34.132h-23.694c18.851 0 34.132 15.281 34.132 34.132l.002 311.528h23.694z" fill="#b4c2db"/><path d="m443.735 34.134h-23.696c9.426 0 17.067 7.641 17.067 17.067v294.46h23.696v-294.46c0-9.425-7.641-17.067-17.067-17.067z" fill="#7784ff"/><path d="m.002 341.332v17.07c0 18.851 15.282 34.132 34.132 34.132h443.732c18.851 0 34.132-15.282 34.132-34.132v-17.07c0-9.426-7.641-17.067-17.066-17.067h-477.864c-9.425.001-17.066 7.641-17.066 17.067z" fill="#f3f5f9"/><g fill="#cfd7e6"><path d="m494.931 324.265h-23.778c9.426 0 17.067 7.641 17.067 17.067v17.07c0 18.851-15.282 34.132-34.133 34.132h23.778c18.851 0 34.132-15.282 34.132-34.132v-17.07c.001-9.426-7.64-17.067-17.066-17.067z"/><path d="m299.256 324.265-4.852 19.333c-1.042 4.165-4.768 7.075-9.062 7.075h-58.682c-4.294 0-8.02-2.909-9.059-7.068l-4.815-19.34h-15.926l5.746 23.081c2.764 11.057 12.655 18.78 24.052 18.78h58.682c11.398 0 21.289-7.723 24.051-18.773l5.795-23.088z"/></g></g><g><g><g><path d="m358.4 170.666v-93.866c0-4.713-3.82-8.533-8.533-8.533h-136.534c-4.713 0-8.533 3.821-8.533 8.533v85.333c0 4.713 3.821 8.533 8.533 8.533z" fill="#f3f5f9"/></g></g><circle cx="136.533" cy="153.6" fill="#ffd9b3" r="34.133"/><path d="m136.533 119.467c-4.166 0-8.156.749-11.847 2.115 13.011 4.816 22.286 17.333 22.286 32.018s-9.275 27.202-22.286 32.018c3.691 1.366 7.681 2.115 11.847 2.115 18.851 0 34.133-15.282 34.133-34.133s-15.281-34.133-34.133-34.133z" fill="#fb9"/><path d="m106.287 197.618c-12.705 9.317-20.953 24.353-20.953 41.315v42.667c0 4.713 3.82 8.533 8.533 8.533h85.333c4.713 0 8.533-3.82 8.533-8.533v-41.824c0-17.102-8.256-32.503-21.055-42.035z" fill="#68d9c0"/><path d="m166.66 197.746-23.774-.051c12.85 9.524 21.153 24.94 21.153 42.082v41.823c0 4.713-3.82 8.533-8.533 8.533h23.694c4.713 0 8.533-3.821 8.533-8.533v-41.824c0-17.107-8.269-32.499-21.073-42.03z" fill="#4fc6b9"/><path d="m349.866 68.267h-23.693c4.713 0 8.533 3.821 8.533 8.533v93.866h23.694v-93.866c0-4.713-3.821-8.533-8.534-8.533z" fill="#cfd7e6"/><path d="m147.195 213.337 19.478-15.582c-8.214-6.118-18.29-9.831-29.264-10.014-11.663-.195-22.452 3.512-31.149 9.899l-.001.007 19.614 15.691c6.232 4.986 15.089 4.986 21.322-.001z" fill="#f3f5f9"/><path d="m124.63 189.126c-.003.001-.007.004-.01.005 11.732 2.817 21.852 9.751 28.903 19.143l13.15-10.52c-8.214-6.118-18.29-9.831-29.264-10.014-4.407-.073-8.688.412-12.779 1.386z" fill="#cfd7e6"/></g><g><path d="m315.733 334.552h85.333v30.628h-85.333z" fill="#ffd9b3"/><path d="m377.372 334.552h23.694v30.629h-23.694z" fill="#fb9"/><path d="m437.359 305.491c-7.199 17.512-20.054 32.102-36.292 41.495l-85.467-.078c-16.176-9.397-28.982-23.958-36.16-41.425l78.96-82.792z" fill="#ffd9b3"/><path d="m358.401 222.691-11.974 12.555 66.986 70.244c-7.193 17.5-20.035 32.08-36.256 41.474l23.911.022c16.238-9.393 29.093-23.983 36.292-41.496z" fill="#fb9"/><path d="m477.866 273.067c9.426 0 17.067-7.641 17.067-17.067v-34.133c0-9.426-7.641-17.067-17.067-17.067h-238.933c-9.426 0-17.067 7.641-17.067 17.067v34.133c0 9.426 7.641 17.067 17.067 17.067z" fill="#fb9"/><path d="m477.866 204.801h-23.144c9.426 0 17.067 7.641 17.067 17.067v34.133c0 9.426-7.641 17.067-17.067 17.067h23.144c9.426 0 17.067-7.641 17.067-17.067v-34.133c0-9.426-7.641-17.067-17.067-17.067z" fill="#ffa27d"/><path d="m298.667 399.711v-7.175l6.918-27.672c.95-3.799 4.363-6.464 8.279-6.464h89.074c3.916 0 7.329 2.665 8.279 6.464l6.917 27.67v7.177z" fill="#cfd7e6"/><path d="m411.216 364.864c-.95-3.799-4.363-6.464-8.279-6.464h-23.694c3.916 0 7.329 2.665 8.279 6.464l6.917 27.67v7.177h23.694v-7.177z" fill="#b4c2db"/><path d="m435.203 392.536c37.7 0 68.263 30.562 68.263 68.263v34.135c0 9.426-7.641 17.067-17.067 17.067h-255.998c-9.426 0-17.067-7.641-17.067-17.067v-34.135c0-37.7 30.562-68.263 68.263-68.263z" fill="#68d9c0"/><path d="m460.801 273.067v-102.4c0-37.703-30.564-68.267-68.267-68.267h-68.267c-37.703 0-68.267 30.564-68.267 68.267v102.4c0 18.851 15.282 34.133 34.133 34.133h136.533c18.853 0 34.135-15.282 34.135-34.133z" fill="#595353"/><path d="m435.203 392.536h-23.694c37.701 0 68.263 30.562 68.263 68.262v34.135c0 9.426-7.641 17.066-17.067 17.066h23.694c9.426 0 17.067-7.641 17.067-17.066v-34.135c-.001-37.7-30.563-68.262-68.263-68.262z" fill="#4fc6b9"/><path d="m392.534 102.4h-23.694c37.702.001 68.266 30.564 68.266 68.267v102.4c0 18.851-15.282 34.133-34.133 34.133h23.694c18.851 0 34.133-15.282 34.133-34.133v-102.4c.001-37.702-30.564-68.267-68.266-68.267z" fill="#403939"/><g><g><path d="m366.934 144.26h-17.067c-4.268 0-7.726-3.459-7.726-7.726s3.459-7.726 7.726-7.726h17.067c4.268 0 7.726 3.459 7.726 7.726s-3.459 7.726-7.726 7.726z" fill="#403939"/></g></g></g></g></svg>